<?xml version="1.0" encoding="utf-8"?>
<!-- Generator: Adobe Illustrator 26.3.1, SVG Export Plug-In . SVG Version: 6.00 Build 0)  -->
<svg version="1.1" id="Calque_1" xmlns="http://www.w3.org/2000/svg" xmlns:xlink="http://www.w3.org/1999/xlink" x="0px" y="0px"
	 viewBox="0 0 500 500" style="enable-background:new 0 0 500 500;" xml:space="preserve">
<style type="text/css">
	.st0{fill:#E30613;stroke:#D30A11;stroke-miterlimit:10;}
</style>
<g>
	<path class="st0" d="M198.8,181.9c-2.7-8.1-4.2-13.9-9.8-19.7c-3.8-3.9-6.5-5-17.8-5h-18.3v103.2c0,17.8,2.2,19.5,19.6,22.2v3.3
		h-66v-3.3c16.3-3.3,18.7-3.9,18.7-22.2V157.2h-20.3c-9.6,0-12.3,2.3-15.4,5.4c-3.8,3.9-7.4,11.6-10,19.7h-3.8
		c1.1-11.2,2.2-25.1,2.7-35.7h3.1c3.8,4.6,7.4,4.6,13.6,4.6h89.5c5.8,0,9.1-0.6,13.6-4.6h2.9c0,9.3,0.2,24.3,1.3,34.8L198.8,181.9z"
		/>
	<path class="st0" d="M280.9,212.2c24.1,3.5,42.6,14.5,42.6,34.6c0,15.1-8.3,25.5-19.9,31.7c-11.6,6.2-27.9,8.7-44.8,8.7h-54.2v-3.3
		c15.8-2.7,17.8-4.4,17.8-22.2v-84.6c0-18-2.2-18.4-17.8-21.3v-3.3h62.5c18.5,0,28.1,2.5,36.1,7.5c7.8,5,12.3,12.4,12.3,22
		C315.5,200.8,296.8,209.1,280.9,212.2z M259.5,211.3c20.1,0,27.4-7.9,27.4-25.1c0-21.6-11.8-28.8-24.8-28.8c-3.8,0-8,0.4-9.8,1.9
		c-2,1.5-2.2,4.6-2.2,10.2v41.9H259.5z M250.1,262.9c0,14.3,6,19.1,18.5,19.1c13.8,0-4.6-10.7-4.6-32.9c0-20.7,20-32.9-5-32.9h-8.9
		V262.9z"/>
	<path class="st0" d="M438.4,249.9c-2,9.5-8,30.7-9.4,33.8H323.5v-3.3c19.6-2.7,20.7-4.4,20.7-22.2v-83.7c0-18.4-1.6-19.5-18.5-22.2
		v-3.3h64.5v3.3c-16.7,2.9-18.3,4.4-18.3,22.2v88.7c0,13.1,3.8,14.3,14.9,14.3c3.8,0,10,0,13.4,0c12,0,15.2-1.7,21-6.6
		c4.7-4.1,9.8-13.3,13.8-21.8L438.4,249.9z"/>
</g>
<g>
</g>
<g>
</g>
<g>
</g>
<g>
</g>
<g>
</g>
<g>
</g>
</svg>
